<?xml version="1.0" encoding="UTF-8"?>
<svg width="116px" height="48px" viewBox="0 0 116 48" version="1.1" xmlns="http://www.w3.org/2000/svg" xmlns:xlink="http://www.w3.org/1999/xlink">
    <g id="Page-1" stroke="none" stroke-width="1" fill="none" fill-rule="evenodd">
        <g id="Navigation_signed-in_sellers" transform="translate(-33.000000, -28.000000)" fill="#231F20">
            <g id="Group-3" transform="translate(33.000000, 28.000000)">
                <g id="Atoms-/-Logo-/-Onwhite">
                    <path d="M0,48 L116,48 L116,0 L0,0 L0,48 Z M2,46 L114,46 L114,2 L2,2 L2,46 Z" id="Fill-1"></path>
                    <g id="Group" stroke-width="1" transform="translate(13.000000, 12.000000)">
                        <path d="M2.44451502,10.6322019 L0.134446352,10.6322019 L0.134446352,7.76462243 L2.44451502,7.76462243 L2.44451502,6.19374393 C2.44451502,4.2654729 2.91300429,2.77368785 3.85077253,1.71819252 C4.78834335,0.662500935 6.11918455,0.134557009 7.84369099,0.134557009 C8.34593991,0.134557009 8.86891845,0.184407477 9.41302146,0.284304673 C9.95712446,0.384005607 10.4133734,0.51726729 10.7817682,0.683108411 L10.4050815,3.52576262 C9.70224893,3.27631402 9.023897,3.15168785 8.37101288,3.15168785 C7.53353648,3.15168785 6.91855794,3.42194019 6.52548498,3.9622486 C6.13201717,4.50255701 5.93538197,5.34589346 5.93538197,6.49304299 L5.93538197,7.76462243 L9.37551073,7.76462243 L9.37551073,10.6322019 L5.93538197,10.6322019 L5.93538197,20.4564729 L2.44451502,20.4564729 L2.44451502,10.6322019 Z" id="Fill-107"></path>
                        <path d="M13.3431193,7.76468131 L16.7082266,7.76468131 L16.7332996,9.85918598 C17.0849133,9.11123271 17.5575485,8.53775607 18.1519948,8.13875607 C18.7462438,7.73975607 19.4366386,7.54035421 20.2237717,7.54035421 C20.759188,7.54035421 21.2535399,7.63161589 21.7058403,7.81453178 L21.4041751,11.080915 C20.8847502,10.8815131 20.366115,10.7818121 19.847085,10.7818121 C18.8929305,10.7818121 18.1519948,11.1225224 17.6248704,11.8041393 C17.0975485,12.4859523 16.8337888,13.4415505 16.8337888,14.6717187 L16.8337888,20.4565318 L13.3431193,20.4565318 L13.3431193,7.76468131 Z" id="Fill-109"></path>
                        <path d="M31.2982815,17.7635075 C32.2859983,17.7635075 33.097612,17.423386 33.7341099,16.7415729 C34.3704103,16.0599561 34.6884618,15.1793299 34.6884618,14.0981243 C34.6884618,13.0345822 34.3747536,12.1618065 33.7465476,11.4799935 C33.1187365,10.7983766 32.3027794,10.4576664 31.2982815,10.4576664 C30.2937837,10.4576664 29.4778266,10.7983766 28.8500155,11.4799935 C28.2218094,12.1618065 27.9081013,13.0345822 27.9081013,14.0981243 C27.9081013,15.1793299 28.2259554,16.0599561 28.8628481,16.7415729 C29.4985562,17.423386 30.3105648,17.7635075 31.2982815,17.7635075 M31.2982815,20.8558065 C30.0426592,20.8558065 28.8914747,20.5726009 27.8451227,20.0075636 C26.7989682,19.4427224 25.9658352,18.6449187 25.3471056,17.6141523 C24.7271914,16.5835822 24.4176292,15.4117037 24.4176292,14.0981243 C24.4176292,12.8848346 24.7064618,11.7665355 25.284127,10.7444047 C25.8615948,9.72207757 26.6777494,8.90366636 27.732788,8.28818972 C28.7870369,7.67349813 29.9757322,7.36556355 31.2982815,7.36556355 C32.5539039,7.36556355 33.7046936,7.64425514 34.7514403,8.20104953 C35.7973974,8.75843271 36.630333,9.55152617 37.2498524,10.5822925 C37.8689768,11.6132551 38.1789339,12.7851336 38.1789339,14.0981243 C38.1789339,15.3284888 37.8901013,16.4542458 37.3128309,17.4769654 C36.7349682,18.4992925 35.9188137,19.3180963 34.86417,19.9327879 C33.8095262,20.547872 32.6206335,20.8558065 31.2982815,20.8558065" id="Fill-111"></path>
                        <path d="M42.4224833,7.76468131 L45.7875906,7.76468131 L45.8126635,9.33555981 C46.1972472,8.68730748 46.7206206,8.19724206 47.3823888,7.86438224 C48.04317,7.53191495 48.8176678,7.36568131 49.7050927,7.36568131 C51.5632558,7.36568131 52.8692215,8.12246636 53.6225948,9.63485888 C53.9740112,8.95324206 54.5224575,8.40469065 55.2671442,7.98900841 C56.0122258,7.57391495 56.8281828,7.36568131 57.7158052,7.36568131 C59.239333,7.36568131 60.4027579,7.82316729 61.2066721,8.73715794 C62.009994,9.65134486 62.4117536,10.9898495 62.4117536,12.7516907 L62.4117536,20.4565318 L58.9210841,20.4565318 L58.9210841,13.399943 C58.9210841,12.3860551 58.7370841,11.6379056 58.3686893,11.1558869 C58.000097,10.673672 57.430921,10.4326626 56.6611614,10.4326626 C55.8910069,10.4326626 55.2839253,10.7152794 54.8407064,11.2805131 C54.3968953,11.8457467 54.1753845,12.6270645 54.1753845,13.6244664 L54.1753845,20.4565318 L50.6843202,20.4565318 L50.6843202,13.399943 C50.6843202,12.3860551 50.5046635,11.6379056 50.1443631,11.1558869 C49.7842601,10.673672 49.2107408,10.4326626 48.4243974,10.4326626 C47.637067,10.4326626 47.0220884,10.7152794 46.5786721,11.2805131 C46.1346635,11.8457467 45.9131528,12.6186252 45.9131528,13.5993449 L45.9131528,20.4565318 L42.4224833,20.4565318 L42.4224833,7.76468131 Z" id="Fill-113"></path>
                        <path d="M72.9334343,20.8556692 C71.3429794,20.8556692 70.1627734,20.4527439 69.3930137,19.6461084 C68.6224644,18.8402579 68.2378807,17.605772 68.2378807,15.9434355 L68.2378807,10.6323981 L65.751709,10.6323981 L65.751709,7.76481869 L68.2378807,7.76481869 L68.2378807,4.32356636 L71.7279579,4.32356636 L71.7279579,7.76481869 L75.7208764,7.76481869 L75.7208764,10.6323981 L71.7279579,10.6323981 L71.7279579,15.3201084 C71.7279579,16.2011271 71.878988,16.8328935 72.1800609,17.2152112 C72.4813313,17.597529 72.9920695,17.7882953 73.7118807,17.7882953 C74.5319837,17.7882953 75.2851597,17.605772 75.9720009,17.2401364 L76.3486876,20.1322486 C75.963709,20.3487252 75.4654086,20.5228093 74.8547734,20.6558748 C74.2433485,20.7889402 73.6030996,20.8556692 72.9334343,20.8556692" id="Fill-115"></path>
                        <path d="M84.7112901,20.8556692 C83.2045433,20.8556692 82.0533588,20.3942579 81.2581313,19.4716318 C80.4629039,18.5493981 80.0654876,17.2152112 80.0654876,15.4696598 L80.0654876,7.76481869 L83.5561571,7.76481869 L83.5561571,14.8214075 C83.5561571,16.7999215 84.3174275,17.7882953 85.8413502,17.7882953 C86.6780369,17.7882953 87.323024,17.5099963 87.7745348,16.9532019 C88.2270326,16.3966037 88.4530841,15.6109682 88.4530841,14.5970804 L88.4530841,7.76481869 L91.9435562,7.76481869 L91.9435562,20.4566692 L88.5786464,20.4566692 L88.553376,18.9103234 C88.1847837,19.5426785 87.670097,20.0245009 87.008921,20.3569682 C86.3475476,20.689043 85.5815391,20.8556692 84.7112901,20.8556692" id="Fill-117"></path>
                    </g>
                </g>
            </g>
        </g>
    </g>
</svg>
